<svg xmlns="http://www.w3.org/2000/svg" viewBox="0 0 512 512" style="height: 512px; width: 512px;"><rect fill="#600000" fill-opacity="1" height="512" width="512" rx="32" ry="32"></rect><g class="" transform="translate(0,-1)" style=""><path d="M121 17v30h270V17H121zm16 48v46h30V65h-30zm208 0v46h30V65h-30zm-224 64v30h270v-30H121zm16 48v46h30v-46h-30zm208 0v46h30v-46h-30zm-224 64v30h270v-30H121zm16 48v46h30v-46h-30zm208 0v46h30v-46h-30zm-224 64v30h270v-30H121zm16 48v46h30v-46h-30zm208 0v46h30v-46h-30zm-224 64v30h270v-30H121z" fill="#dededc" fill-opacity="1" stroke="#000000" stroke-opacity="1" stroke-width="0"></path></g></svg>