<svg xmlns="http://www.w3.org/2000/svg" viewBox="0 0 512 512" style="height: 512px; width: 512px;"><rect fill="#600000" fill-opacity="1" height="512" width="512" rx="32" ry="32"></rect><g class="" transform="translate(0,-1)" style=""><path d="M94.09 57L33 209.7V327h174V217h-87c-23.75 0-41-23-41-49s17.25-49 41-49h50.7l-24.8-62zm272.01 0L305 209.7V489h174V209.7L417.9 57zm25.9 62c23.8 0 41 23 41 49s-17.2 49-41 49-41-23-41-49 17.2-49 41-49zm-272 18c-11.6 0-23 12.8-23 31s11.4 31 23 31h169.9l24.8-62zm272 0c-11.6 0-23 12.8-23 31s11.4 31 23 31 23-12.8 23-31-11.4-31-23-31zM33 345v144h254V345z" fill="#dededc" fill-opacity="1" stroke="#000000" stroke-opacity="1" stroke-width="0"></path></g></svg>